ply
format ascii 1.0
comment Created by Blender 2.78 (sub 0) - www.blender.org, source file: ''
element vertex 576
property float x
property float y
property float z
element face 1152
property list uchar uint vertex_indices
end_header
1.737009 -0.252764 0.481143
1.726315 -0.089606 0.481143
1.693108 -0.093978 0.606143
1.703516 -0.252764 0.606143
1.602385 -0.105922 0.697649
1.612009 -0.252764 0.697649
1.478454 -0.122238 0.731143
1.487009 -0.252764 0.731143
1.354523 -0.138553 0.697649
1.362009 -0.252764 0.697649
1.263800 -0.150497 0.606143
1.270503 -0.252764 0.606143
1.230593 -0.154869 0.481143
1.237009 -0.252764 0.481143
1.263800 -0.150497 0.356143
1.270503 -0.252764 0.356143
1.354523 -0.138553 0.264636
1.362009 -0.252764 0.264636
1.478454 -0.122238 0.231143
1.487009 -0.252764 0.231143
1.602385 -0.105922 0.264636
1.612009 -0.252764 0.264636
1.693108 -0.093978 0.356143
1.703516 -0.252764 0.356143
1.694417 0.070760 0.481143
1.662064 0.062091 0.606143
1.573676 0.038408 0.697649
1.452935 0.006055 0.731143
1.332194 -0.026297 0.697649
1.243806 -0.049981 0.606143
1.211454 -0.058649 0.481143
1.243806 -0.049981 0.356143
1.332194 -0.026297 0.264636
1.452935 0.006055 0.231143
1.573676 0.038408 0.264636
1.662064 0.062091 0.356143
1.641859 0.225590 0.481143
1.610915 0.212773 0.606143
1.526374 0.177755 0.697649
1.410889 0.129920 0.731143
1.295404 0.082084 0.697649
1.210863 0.047066 0.606143
1.179919 0.034249 0.481143
1.210863 0.047066 0.356143
1.295404 0.082084 0.264636
1.410889 0.129920 0.231143
1.526374 0.177755 0.264636
1.610915 0.212773 0.356143
1.569541 0.372236 0.481143
1.540534 0.355490 0.606143
1.461288 0.309736 0.697649
1.353034 0.247236 0.731143
1.244781 0.184736 0.697649
1.165534 0.138983 0.606143
1.136528 0.122236 0.481143
1.165534 0.138983 0.356143
1.244781 0.184736 0.264636
1.353034 0.247236 0.231143
1.461288 0.309736 0.264636
1.540534 0.355490 0.356143
1.478701 0.508188 0.481143
1.452129 0.487798 0.606143
1.379532 0.432093 0.697649
1.280363 0.355998 0.731143
1.181193 0.279902 0.697649
1.108597 0.224197 0.606143
1.082024 0.203807 0.481143
1.108597 0.224197 0.356143
1.181193 0.279902 0.264636
1.280363 0.355998 0.231143
1.379532 0.432093 0.264636
1.452129 0.487798 0.356143
1.370893 0.631120 0.481143
1.347209 0.607436 0.606143
1.282504 0.542731 0.697649
1.194116 0.454343 0.731143
1.105727 0.365955 0.697649
1.041023 0.301250 0.606143
1.017339 0.277566 0.481143
1.041023 0.301250 0.356143
1.105727 0.365955 0.264636
1.194116 0.454343 0.231143
1.282504 0.542731 0.264636
1.347209 0.607436 0.356143
1.247961 0.738928 0.481143
1.227571 0.712355 0.606143
1.171866 0.639759 0.697649
1.095771 0.540589 0.731143
1.019675 0.441420 0.697649
0.963970 0.368823 0.606143
0.943580 0.342251 0.481143
0.963970 0.368823 0.356143
1.019675 0.441420 0.264636
1.095771 0.540589 0.231143
1.171866 0.639759 0.264636
1.227571 0.712355 0.356143
1.112009 0.829768 0.481143
1.095262 0.800762 0.606143
1.049509 0.721515 0.697649
0.987009 0.613262 0.731143
0.924509 0.505008 0.697649
0.878756 0.425762 0.606143
0.862009 0.396755 0.481143
0.878756 0.425762 0.356143
0.924509 0.505008 0.264636
0.987009 0.613262 0.231143
1.049509 0.721515 0.264636
1.095262 0.800762 0.356143
0.965364 0.902086 0.481143
0.952546 0.871141 0.606143
0.917528 0.786601 0.697649
0.869693 0.671116 0.731143
0.821857 0.555631 0.697649
0.786839 0.471090 0.606143
0.774022 0.440146 0.481143
0.786839 0.471090 0.356143
0.821857 0.555631 0.264636
0.869693 0.671116 0.231143
0.917528 0.786601 0.264636
0.952546 0.871141 0.356143
0.810533 0.954643 0.481143
0.801864 0.922291 0.606143
0.778180 0.833903 0.697649
0.745828 0.713162 0.731143
0.713476 0.592421 0.697649
0.689792 0.504033 0.606143
0.681123 0.471681 0.481143
0.689792 0.504033 0.356143
0.713476 0.592421 0.264636
0.745828 0.713162 0.231143
0.778180 0.833903 0.264636
0.801864 0.922291 0.356143
0.650167 0.986542 0.481143
0.645795 0.953335 0.606143
0.633851 0.862612 0.697649
0.617535 0.738681 0.731143
0.601219 0.614751 0.697649
0.589275 0.524027 0.606143
0.584904 0.490820 0.481143
0.589275 0.524027 0.356143
0.601219 0.614751 0.264636
0.617535 0.738681 0.231143
0.633851 0.862612 0.264636
0.645795 0.953335 0.356143
0.487009 0.997236 0.481143
0.487009 0.963743 0.606143
0.487009 0.872236 0.697649
0.487009 0.747236 0.731143
0.487009 0.622236 0.697649
0.487009 0.530730 0.606143
0.487009 0.497236 0.481143
0.487009 0.530730 0.356143
0.487009 0.622236 0.264636
0.487009 0.747236 0.231143
0.487009 0.872236 0.264636
0.487009 0.963743 0.356143
0.323851 0.986542 0.481143
0.328223 0.953335 0.606143
0.340167 0.862612 0.697649
0.356483 0.738681 0.731143
0.372799 0.614751 0.697649
0.384743 0.524027 0.606143
0.389114 0.490820 0.481143
0.384743 0.524027 0.356143
0.372799 0.614751 0.264636
0.356483 0.738681 0.231143
0.340167 0.862612 0.264636
0.328223 0.953335 0.356143
0.163485 0.954644 0.481143
0.172154 0.922291 0.606143
0.195838 0.833903 0.697649
0.228190 0.713162 0.731143
0.260543 0.592421 0.697649
0.284226 0.504033 0.606143
0.292895 0.471681 0.481143
0.284226 0.504033 0.356143
0.260543 0.592421 0.264636
0.228190 0.713162 0.231143
0.195838 0.833903 0.264636
0.172154 0.922291 0.356143
0.008655 0.902086 0.481143
0.021472 0.871141 0.606143
0.056490 0.786601 0.697649
0.104326 0.671116 0.731143
0.152161 0.555631 0.697649
0.187179 0.471090 0.606143
0.199996 0.440146 0.481143
0.187179 0.471090 0.356143
0.152161 0.555631 0.264636
0.104326 0.671116 0.231143
0.056490 0.786601 0.264636
0.021472 0.871141 0.356143
-0.137991 0.829768 0.481143
-0.121244 0.800762 0.606143
-0.075491 0.721515 0.697649
-0.012991 0.613262 0.731143
0.049509 0.505009 0.697649
0.095262 0.425762 0.606143
0.112009 0.396755 0.481143
0.095262 0.425762 0.356143
0.049509 0.505009 0.264636
-0.012991 0.613262 0.231143
-0.075491 0.721515 0.264636
-0.121244 0.800762 0.356143
-0.273943 0.738928 0.481143
-0.253553 0.712356 0.606143
-0.197848 0.639759 0.697649
-0.121752 0.540590 0.731143
-0.045657 0.441420 0.697649
0.010048 0.368824 0.606143
0.030438 0.342251 0.481143
0.010048 0.368824 0.356143
-0.045657 0.441420 0.264636
-0.121752 0.540590 0.231143
-0.197848 0.639759 0.264636
-0.253553 0.712356 0.356143
-0.396874 0.631119 0.481143
-0.373191 0.607436 0.606143
-0.308486 0.542731 0.697649
-0.220098 0.454343 0.731143
-0.131709 0.365955 0.697649
-0.067005 0.301250 0.606143
-0.043321 0.277566 0.481143
-0.067005 0.301250 0.356143
-0.131709 0.365955 0.264636
-0.220098 0.454343 0.231143
-0.308486 0.542731 0.264636
-0.373191 0.607436 0.356143
-0.504682 0.508188 0.481143
-0.478110 0.487798 0.606143
-0.405513 0.432093 0.697649
-0.306344 0.355998 0.731143
-0.207175 0.279903 0.697649
-0.134578 0.224197 0.606143
-0.108006 0.203807 0.481143
-0.134578 0.224197 0.356143
-0.207175 0.279903 0.264636
-0.306344 0.355998 0.231143
-0.405513 0.432093 0.264636
-0.478110 0.487798 0.356143
-0.595522 0.372237 0.481143
-0.566516 0.355490 0.606143
-0.487269 0.309737 0.697649
-0.379016 0.247237 0.731143
-0.270763 0.184736 0.697649
-0.191516 0.138983 0.606143
-0.162510 0.122236 0.481143
-0.191516 0.138983 0.356143
-0.270763 0.184736 0.264636
-0.379016 0.247237 0.231143
-0.487269 0.309737 0.264636
-0.566516 0.355490 0.356143
-0.667840 0.225591 0.481143
-0.636896 0.212773 0.606143
-0.552355 0.177755 0.697649
-0.436870 0.129920 0.731143
-0.321385 0.082084 0.697649
-0.236845 0.047066 0.606143
-0.205900 0.034249 0.481143
-0.236845 0.047066 0.356143
-0.321385 0.082084 0.264636
-0.436870 0.129920 0.231143
-0.552355 0.177755 0.264636
-0.636896 0.212773 0.356143
-0.720398 0.070760 0.481143
-0.688046 0.062091 0.606143
-0.599658 0.038408 0.697649
-0.478917 0.006055 0.731143
-0.358176 -0.026297 0.697649
-0.269788 -0.049981 0.606143
-0.237435 -0.058650 0.481143
-0.269788 -0.049981 0.356143
-0.358176 -0.026297 0.264636
-0.478917 0.006055 0.231143
-0.599658 0.038408 0.264636
-0.688046 0.062091 0.356143
-0.752297 -0.089606 0.481143
-0.719090 -0.093978 0.606143
-0.628366 -0.105922 0.697649
-0.504436 -0.122237 0.731143
-0.380505 -0.138553 0.697649
-0.289782 -0.150497 0.606143
-0.256575 -0.154869 0.481143
-0.289782 -0.150497 0.356143
-0.380505 -0.138553 0.264636
-0.504436 -0.122237 0.231143
-0.628366 -0.105922 0.264636
-0.719090 -0.093978 0.356143
-0.762991 -0.252764 0.481143
-0.729497 -0.252764 0.606143
-0.637991 -0.252764 0.697649
-0.512991 -0.252764 0.731143
-0.387991 -0.252764 0.697649
-0.296485 -0.252764 0.606143
-0.262991 -0.252764 0.481143
-0.296485 -0.252764 0.356143
-0.387991 -0.252764 0.264636
-0.512991 -0.252764 0.231143
-0.637991 -0.252764 0.264636
-0.729497 -0.252764 0.356143
-0.752297 -0.415922 0.481143
-0.719090 -0.411550 0.606143
-0.628366 -0.399606 0.697649
-0.504436 -0.383290 0.731143
-0.380505 -0.366974 0.697649
-0.289782 -0.355030 0.606143
-0.256575 -0.350658 0.481143
-0.289782 -0.355030 0.356143
-0.380505 -0.366974 0.264636
-0.504436 -0.383290 0.231143
-0.628366 -0.399606 0.264636
-0.719090 -0.411550 0.356143
-0.720398 -0.576287 0.481143
-0.688046 -0.567619 0.606143
-0.599658 -0.543935 0.697649
-0.478917 -0.511583 0.731143
-0.358176 -0.479230 0.697649
-0.269788 -0.455547 0.606143
-0.237435 -0.446878 0.481143
-0.269788 -0.455547 0.356143
-0.358176 -0.479230 0.264636
-0.478917 -0.511583 0.231143
-0.599658 -0.543935 0.264636
-0.688046 -0.567619 0.356143
-0.667840 -0.731118 0.481143
-0.636896 -0.718300 0.606143
-0.552355 -0.683282 0.697649
-0.436870 -0.635447 0.731143
-0.321386 -0.587611 0.697649
-0.236845 -0.552593 0.606143
-0.205901 -0.539776 0.481143
-0.236845 -0.552593 0.356143
-0.321386 -0.587611 0.264636
-0.436870 -0.635447 0.231143
-0.552355 -0.683282 0.264636
-0.636896 -0.718300 0.356143
-0.595523 -0.877764 0.481143
-0.566517 -0.861017 0.606143
-0.487270 -0.815264 0.697649
-0.379016 -0.752764 0.731143
-0.270763 -0.690264 0.697649
-0.191516 -0.644510 0.606143
-0.162510 -0.627764 0.481143
-0.191516 -0.644510 0.356143
-0.270763 -0.690264 0.264636
-0.379016 -0.752764 0.231143
-0.487270 -0.815264 0.264636
-0.566517 -0.861017 0.356143
-0.504682 -1.013716 0.481143
-0.478110 -0.993326 0.606143
-0.405513 -0.937620 0.697649
-0.306344 -0.861525 0.731143
-0.207175 -0.785430 0.697649
-0.134578 -0.729724 0.606143
-0.108006 -0.709335 0.481143
-0.134578 -0.729724 0.356143
-0.207175 -0.785430 0.264636
-0.306344 -0.861525 0.231143
-0.405513 -0.937620 0.264636
-0.478110 -0.993326 0.356143
-0.396874 -1.136647 0.481143
-0.373191 -1.112963 0.606143
-0.308486 -1.048259 0.697649
-0.220098 -0.959870 0.731143
-0.131709 -0.871482 0.697649
-0.067005 -0.806777 0.606143
-0.043321 -0.783094 0.481143
-0.067005 -0.806777 0.356143
-0.131709 -0.871482 0.264636
-0.220098 -0.959870 0.231143
-0.308486 -1.048259 0.264636
-0.373191 -1.112963 0.356143
-0.273943 -1.244455 0.481143
-0.253554 -1.217883 0.606143
-0.197848 -1.145286 0.697649
-0.121753 -1.046117 0.731143
-0.045657 -0.946948 0.697649
0.010048 -0.874351 0.606143
0.030438 -0.847779 0.481143
0.010048 -0.874351 0.356143
-0.045657 -0.946948 0.264636
-0.121753 -1.046117 0.231143
-0.197848 -1.145286 0.264636
-0.253554 -1.217883 0.356143
-0.137991 -1.335296 0.481143
-0.121244 -1.306289 0.606143
-0.075491 -1.227042 0.697649
-0.012991 -1.118789 0.731143
0.049509 -1.010536 0.697649
0.095262 -0.931289 0.606143
0.112009 -0.902283 0.481143
0.095262 -0.931289 0.356143
0.049509 -1.010536 0.264636
-0.012991 -1.118789 0.231143
-0.075491 -1.227042 0.264636
-0.121244 -1.306289 0.356143
0.008655 -1.407613 0.481143
0.021472 -1.376669 0.606143
0.056490 -1.292128 0.697649
0.104326 -1.176643 0.731143
0.152161 -1.061158 0.697649
0.187179 -0.976617 0.606143
0.199996 -0.945673 0.481143
0.187179 -0.976617 0.356143
0.152161 -1.061158 0.264636
0.104326 -1.176643 0.231143
0.056490 -1.292128 0.264636
0.021472 -1.376669 0.356143
0.163485 -1.460171 0.481143
0.172154 -1.427819 0.606143
0.195837 -1.339430 0.697649
0.228190 -1.218689 0.731143
0.260542 -1.097949 0.697649
0.284226 -1.009560 0.606143
0.292895 -0.977208 0.481143
0.284226 -1.009560 0.356143
0.260542 -1.097949 0.264636
0.228190 -1.218689 0.231143
0.195837 -1.339430 0.264636
0.172154 -1.427819 0.356143
0.323851 -1.492070 0.481143
0.328222 -1.458863 0.606143
0.340166 -1.368139 0.697649
0.356482 -1.244208 0.731143
0.372798 -1.120278 0.697649
0.384742 -1.029554 0.606143
0.389114 -0.996347 0.481143
0.384742 -1.029554 0.356143
0.372798 -1.120278 0.264636
0.356482 -1.244208 0.231143
0.340166 -1.368139 0.264636
0.328222 -1.458863 0.356143
0.487009 -1.502764 0.481143
0.487009 -1.469270 0.606143
0.487009 -1.377764 0.697649
0.487009 -1.252764 0.731143
0.487009 -1.127764 0.697649
0.487009 -1.036258 0.606143
0.487009 -1.002764 0.481143
0.487009 -1.036258 0.356143
0.487009 -1.127764 0.264636
0.487009 -1.252764 0.231143
0.487009 -1.377764 0.264636
0.487009 -1.469270 0.356143
0.650167 -1.492070 0.481143
0.645795 -1.458863 0.606143
0.633851 -1.368139 0.697649
0.617535 -1.244209 0.731143
0.601219 -1.120278 0.697649
0.589275 -1.029554 0.606143
0.584904 -0.996347 0.481143
0.589275 -1.029554 0.356143
0.601219 -1.120278 0.264636
0.617535 -1.244209 0.231143
0.633851 -1.368139 0.264636
0.645795 -1.458863 0.356143
0.810532 -1.460171 0.481143
0.801864 -1.427819 0.606143
0.778180 -1.339430 0.697649
0.745828 -1.218690 0.731143
0.713475 -1.097949 0.697649
0.689792 -1.009561 0.606143
0.681123 -0.977208 0.481143
0.689792 -1.009561 0.356143
0.713475 -1.097949 0.264636
0.745828 -1.218690 0.231143
0.778180 -1.339430 0.264636
0.801864 -1.427819 0.356143
0.965364 -1.407613 0.481143
0.952546 -1.376669 0.606143
0.917528 -1.292128 0.697649
0.869693 -1.176643 0.731143
0.821857 -1.061158 0.697649
0.786839 -0.976617 0.606143
0.774022 -0.945673 0.481143
0.786839 -0.976617 0.356143
0.821857 -1.061158 0.264636
0.869693 -1.176643 0.231143
0.917528 -1.292128 0.264636
0.952546 -1.376669 0.356143
1.112009 -1.335295 0.481143
1.095262 -1.306289 0.606143
1.049509 -1.227042 0.697649
0.987009 -1.118789 0.731143
0.924509 -1.010536 0.697649
0.878756 -0.931289 0.606143
0.862009 -0.902283 0.481143
0.878756 -0.931289 0.356143
0.924509 -1.010536 0.264636
0.987009 -1.118789 0.231143
1.049509 -1.227042 0.264636
1.095262 -1.306289 0.356143
1.247961 -1.244456 0.481143
1.227571 -1.217883 0.606143
1.171866 -1.145287 0.697649
1.095770 -1.046117 0.731143
1.019675 -0.946948 0.697649
0.963970 -0.874351 0.606143
0.943580 -0.847779 0.481143
0.963970 -0.874351 0.356143
1.019675 -0.946948 0.264636
1.095770 -1.046117 0.231143
1.171866 -1.145287 0.264636
1.227571 -1.217883 0.356143
1.370892 -1.136648 0.481143
1.347208 -1.112964 0.606143
1.282504 -1.048259 0.697649
1.194116 -0.959871 0.731143
1.105727 -0.871483 0.697649
1.041023 -0.806778 0.606143
1.017339 -0.783094 0.481143
1.041023 -0.806778 0.356143
1.105727 -0.871483 0.264636
1.194116 -0.959871 0.231143
1.282504 -1.048259 0.264636
1.347208 -1.112964 0.356143
1.478701 -1.013715 0.481143
1.452129 -0.993326 0.606143
1.379532 -0.937620 0.697649
1.280363 -0.861525 0.731143
1.181193 -0.785430 0.697649
1.108597 -0.729724 0.606143
1.082024 -0.709335 0.481143
1.108597 -0.729724 0.356143
1.181193 -0.785430 0.264636
1.280363 -0.861525 0.231143
1.379532 -0.937620 0.264636
1.452129 -0.993326 0.356143
1.569541 -0.877764 0.481143
1.540534 -0.861017 0.606143
1.461288 -0.815264 0.697649
1.353034 -0.752764 0.731143
1.244781 -0.690264 0.697649
1.165534 -0.644511 0.606143
1.136528 -0.627764 0.481143
1.165534 -0.644511 0.356143
1.244781 -0.690264 0.264636
1.353034 -0.752764 0.231143
1.461288 -0.815264 0.264636
1.540534 -0.861017 0.356143
1.641858 -0.731119 0.481143
1.610914 -0.718301 0.606143
1.526374 -0.683283 0.697649
1.410889 -0.635448 0.731143
1.295404 -0.587612 0.697649
1.210863 -0.552594 0.606143
1.179919 -0.539777 0.481143
1.210863 -0.552594 0.356143
1.295404 -0.587612 0.264636
1.410889 -0.635448 0.231143
1.526374 -0.683283 0.264636
1.610914 -0.718301 0.356143
1.694417 -0.576287 0.481143
1.662064 -0.567618 0.606143
1.573676 -0.543935 0.697649
1.452935 -0.511582 0.731143
1.332194 -0.479230 0.697649
1.243806 -0.455547 0.606143
1.211454 -0.446878 0.481143
1.243806 -0.455547 0.356143
1.332194 -0.479230 0.264636
1.452935 -0.511582 0.231143
1.573676 -0.543935 0.264636
1.662064 -0.567618 0.356143
1.726315 -0.415921 0.481143
1.693108 -0.411550 0.606143
1.602385 -0.399606 0.697649
1.478454 -0.383290 0.731143
1.354523 -0.366974 0.697649
1.263800 -0.355030 0.606143
1.230593 -0.350658 0.481143
1.263800 -0.355030 0.356143
1.354523 -0.366974 0.264636
1.478454 -0.383290 0.231143
1.602385 -0.399606 0.264636
1.693108 -0.411550 0.356143
3 0 1 2
3 2 3 0
3 3 2 4
3 4 5 3
3 5 4 6
3 6 7 5
3 7 6 8
3 8 9 7
3 9 8 10
3 10 11 9
3 11 10 12
3 12 13 11
3 13 12 14
3 14 15 13
3 15 14 16
3 16 17 15
3 17 16 18
3 18 19 17
3 19 18 20
3 20 21 19
3 21 20 22
3 22 23 21
3 0 23 22
3 22 1 0
3 1 24 25
3 25 2 1
3 2 25 26
3 26 4 2
3 4 26 27
3 27 6 4
3 6 27 28
3 28 8 6
3 8 28 29
3 29 10 8
3 10 29 30
3 30 12 10
3 12 30 31
3 31 14 12
3 14 31 32
3 32 16 14
3 16 32 33
3 33 18 16
3 18 33 34
3 34 20 18
3 20 34 35
3 35 22 20
3 22 35 24
3 24 1 22
3 24 36 37
3 37 25 24
3 25 37 38
3 38 26 25
3 26 38 39
3 39 27 26
3 27 39 40
3 40 28 27
3 28 40 41
3 41 29 28
3 29 41 42
3 42 30 29
3 30 42 43
3 43 31 30
3 31 43 44
3 44 32 31
3 32 44 45
3 45 33 32
3 33 45 46
3 46 34 33
3 34 46 47
3 47 35 34
3 35 47 36
3 36 24 35
3 36 48 49
3 49 37 36
3 37 49 50
3 50 38 37
3 38 50 51
3 51 39 38
3 39 51 52
3 52 40 39
3 40 52 53
3 53 41 40
3 41 53 54
3 54 42 41
3 42 54 55
3 55 43 42
3 43 55 56
3 56 44 43
3 44 56 57
3 57 45 44
3 45 57 58
3 58 46 45
3 46 58 59
3 59 47 46
3 47 59 48
3 48 36 47
3 48 60 61
3 61 49 48
3 49 61 62
3 62 50 49
3 50 62 63
3 63 51 50
3 51 63 64
3 64 52 51
3 52 64 65
3 65 53 52
3 53 65 66
3 66 54 53
3 54 66 67
3 67 55 54
3 55 67 68
3 68 56 55
3 56 68 69
3 69 57 56
3 57 69 70
3 70 58 57
3 58 70 71
3 71 59 58
3 59 71 60
3 60 48 59
3 60 72 73
3 73 61 60
3 61 73 74
3 74 62 61
3 62 74 75
3 75 63 62
3 63 75 76
3 76 64 63
3 64 76 77
3 77 65 64
3 65 77 78
3 78 66 65
3 66 78 79
3 79 67 66
3 67 79 80
3 80 68 67
3 68 80 81
3 81 69 68
3 69 81 82
3 82 70 69
3 70 82 83
3 83 71 70
3 71 83 72
3 72 60 71
3 72 84 85
3 85 73 72
3 73 85 86
3 86 74 73
3 74 86 87
3 87 75 74
3 75 87 88
3 88 76 75
3 76 88 89
3 89 77 76
3 77 89 90
3 90 78 77
3 78 90 91
3 91 79 78
3 79 91 92
3 92 80 79
3 80 92 93
3 93 81 80
3 81 93 94
3 94 82 81
3 82 94 95
3 95 83 82
3 83 95 84
3 84 72 83
3 84 96 97
3 97 85 84
3 85 97 98
3 98 86 85
3 86 98 99
3 99 87 86
3 87 99 100
3 100 88 87
3 88 100 101
3 101 89 88
3 89 101 102
3 102 90 89
3 90 102 103
3 103 91 90
3 91 103 104
3 104 92 91
3 92 104 105
3 105 93 92
3 93 105 106
3 106 94 93
3 94 106 107
3 107 95 94
3 95 107 96
3 96 84 95
3 96 108 109
3 109 97 96
3 97 109 110
3 110 98 97
3 98 110 111
3 111 99 98
3 99 111 112
3 112 100 99
3 100 112 113
3 113 101 100
3 101 113 114
3 114 102 101
3 102 114 115
3 115 103 102
3 103 115 116
3 116 104 103
3 104 116 117
3 117 105 104
3 105 117 118
3 118 106 105
3 106 118 119
3 119 107 106
3 107 119 108
3 108 96 107
3 108 120 121
3 121 109 108
3 109 121 122
3 122 110 109
3 110 122 123
3 123 111 110
3 111 123 124
3 124 112 111
3 112 124 125
3 125 113 112
3 113 125 126
3 126 114 113
3 114 126 127
3 127 115 114
3 115 127 128
3 128 116 115
3 116 128 129
3 129 117 116
3 117 129 130
3 130 118 117
3 118 130 131
3 131 119 118
3 119 131 120
3 120 108 119
3 120 132 133
3 133 121 120
3 121 133 134
3 134 122 121
3 122 134 135
3 135 123 122
3 123 135 136
3 136 124 123
3 124 136 137
3 137 125 124
3 125 137 138
3 138 126 125
3 126 138 139
3 139 127 126
3 127 139 140
3 140 128 127
3 128 140 141
3 141 129 128
3 129 141 142
3 142 130 129
3 130 142 143
3 143 131 130
3 131 143 132
3 132 120 131
3 132 144 145
3 145 133 132
3 133 145 146
3 146 134 133
3 134 146 147
3 147 135 134
3 135 147 148
3 148 136 135
3 136 148 149
3 149 137 136
3 137 149 150
3 150 138 137
3 138 150 151
3 151 139 138
3 139 151 152
3 152 140 139
3 140 152 153
3 153 141 140
3 141 153 154
3 154 142 141
3 142 154 155
3 155 143 142
3 143 155 144
3 144 132 143
3 144 156 157
3 157 145 144
3 145 157 158
3 158 146 145
3 146 158 159
3 159 147 146
3 147 159 160
3 160 148 147
3 148 160 161
3 161 149 148
3 149 161 162
3 162 150 149
3 150 162 163
3 163 151 150
3 151 163 164
3 164 152 151
3 152 164 165
3 165 153 152
3 153 165 166
3 166 154 153
3 154 166 167
3 167 155 154
3 155 167 156
3 156 144 155
3 156 168 169
3 169 157 156
3 157 169 170
3 170 158 157
3 158 170 171
3 171 159 158
3 159 171 172
3 172 160 159
3 160 172 173
3 173 161 160
3 161 173 174
3 174 162 161
3 162 174 175
3 175 163 162
3 163 175 176
3 176 164 163
3 164 176 177
3 177 165 164
3 165 177 178
3 178 166 165
3 166 178 179
3 179 167 166
3 167 179 168
3 168 156 167
3 168 180 181
3 181 169 168
3 169 181 182
3 182 170 169
3 170 182 183
3 183 171 170
3 171 183 184
3 184 172 171
3 172 184 185
3 185 173 172
3 173 185 186
3 186 174 173
3 174 186 187
3 187 175 174
3 175 187 188
3 188 176 175
3 176 188 189
3 189 177 176
3 177 189 190
3 190 178 177
3 178 190 191
3 191 179 178
3 179 191 180
3 180 168 179
3 180 192 193
3 193 181 180
3 181 193 194
3 194 182 181
3 182 194 195
3 195 183 182
3 183 195 196
3 196 184 183
3 184 196 197
3 197 185 184
3 185 197 198
3 198 186 185
3 186 198 199
3 199 187 186
3 187 199 200
3 200 188 187
3 188 200 201
3 201 189 188
3 189 201 202
3 202 190 189
3 190 202 203
3 203 191 190
3 191 203 192
3 192 180 191
3 192 204 205
3 205 193 192
3 193 205 206
3 206 194 193
3 194 206 207
3 207 195 194
3 195 207 208
3 208 196 195
3 196 208 209
3 209 197 196
3 197 209 210
3 210 198 197
3 198 210 211
3 211 199 198
3 199 211 212
3 212 200 199
3 200 212 213
3 213 201 200
3 201 213 214
3 214 202 201
3 202 214 215
3 215 203 202
3 203 215 204
3 204 192 203
3 204 216 217
3 217 205 204
3 205 217 218
3 218 206 205
3 206 218 219
3 219 207 206
3 207 219 220
3 220 208 207
3 208 220 221
3 221 209 208
3 209 221 222
3 222 210 209
3 210 222 223
3 223 211 210
3 211 223 224
3 224 212 211
3 212 224 225
3 225 213 212
3 213 225 226
3 226 214 213
3 214 226 227
3 227 215 214
3 215 227 216
3 216 204 215
3 216 228 229
3 229 217 216
3 217 229 230
3 230 218 217
3 218 230 231
3 231 219 218
3 219 231 232
3 232 220 219
3 220 232 233
3 233 221 220
3 221 233 234
3 234 222 221
3 222 234 235
3 235 223 222
3 223 235 236
3 236 224 223
3 224 236 237
3 237 225 224
3 225 237 238
3 238 226 225
3 226 238 239
3 239 227 226
3 227 239 228
3 228 216 227
3 228 240 241
3 241 229 228
3 229 241 242
3 242 230 229
3 230 242 243
3 243 231 230
3 231 243 244
3 244 232 231
3 232 244 245
3 245 233 232
3 233 245 246
3 246 234 233
3 234 246 247
3 247 235 234
3 235 247 248
3 248 236 235
3 236 248 249
3 249 237 236
3 237 249 250
3 250 238 237
3 238 250 251
3 251 239 238
3 239 251 240
3 240 228 239
3 240 252 253
3 253 241 240
3 241 253 254
3 254 242 241
3 242 254 255
3 255 243 242
3 243 255 256
3 256 244 243
3 244 256 257
3 257 245 244
3 245 257 258
3 258 246 245
3 246 258 259
3 259 247 246
3 247 259 260
3 260 248 247
3 248 260 261
3 261 249 248
3 249 261 262
3 262 250 249
3 250 262 263
3 263 251 250
3 251 263 252
3 252 240 251
3 252 264 265
3 265 253 252
3 253 265 266
3 266 254 253
3 254 266 267
3 267 255 254
3 255 267 268
3 268 256 255
3 256 268 269
3 269 257 256
3 257 269 270
3 270 258 257
3 258 270 271
3 271 259 258
3 259 271 272
3 272 260 259
3 260 272 273
3 273 261 260
3 261 273 274
3 274 262 261
3 262 274 275
3 275 263 262
3 263 275 264
3 264 252 263
3 264 276 277
3 277 265 264
3 265 277 278
3 278 266 265
3 266 278 279
3 279 267 266
3 267 279 280
3 280 268 267
3 268 280 281
3 281 269 268
3 269 281 282
3 282 270 269
3 270 282 283
3 283 271 270
3 271 283 284
3 284 272 271
3 272 284 285
3 285 273 272
3 273 285 286
3 286 274 273
3 274 286 287
3 287 275 274
3 275 287 276
3 276 264 275
3 276 288 289
3 289 277 276
3 277 289 290
3 290 278 277
3 278 290 291
3 291 279 278
3 279 291 292
3 292 280 279
3 280 292 293
3 293 281 280
3 281 293 294
3 294 282 281
3 282 294 295
3 295 283 282
3 283 295 296
3 296 284 283
3 284 296 297
3 297 285 284
3 285 297 298
3 298 286 285
3 286 298 299
3 299 287 286
3 287 299 288
3 288 276 287
3 288 300 301
3 301 289 288
3 289 301 302
3 302 290 289
3 290 302 303
3 303 291 290
3 291 303 304
3 304 292 291
3 292 304 305
3 305 293 292
3 293 305 306
3 306 294 293
3 294 306 307
3 307 295 294
3 295 307 308
3 308 296 295
3 296 308 309
3 309 297 296
3 297 309 310
3 310 298 297
3 298 310 311
3 311 299 298
3 299 311 300
3 300 288 299
3 300 312 313
3 313 301 300
3 301 313 314
3 314 302 301
3 302 314 315
3 315 303 302
3 303 315 316
3 316 304 303
3 304 316 317
3 317 305 304
3 305 317 318
3 318 306 305
3 306 318 319
3 319 307 306
3 307 319 320
3 320 308 307
3 308 320 321
3 321 309 308
3 309 321 322
3 322 310 309
3 310 322 323
3 323 311 310
3 311 323 312
3 312 300 311
3 312 324 325
3 325 313 312
3 313 325 326
3 326 314 313
3 314 326 327
3 327 315 314
3 315 327 328
3 328 316 315
3 316 328 329
3 329 317 316
3 317 329 330
3 330 318 317
3 318 330 331
3 331 319 318
3 319 331 332
3 332 320 319
3 320 332 333
3 333 321 320
3 321 333 334
3 334 322 321
3 322 334 335
3 335 323 322
3 323 335 324
3 324 312 323
3 324 336 337
3 337 325 324
3 325 337 338
3 338 326 325
3 326 338 339
3 339 327 326
3 327 339 340
3 340 328 327
3 328 340 341
3 341 329 328
3 329 341 342
3 342 330 329
3 330 342 343
3 343 331 330
3 331 343 344
3 344 332 331
3 332 344 345
3 345 333 332
3 333 345 346
3 346 334 333
3 334 346 347
3 347 335 334
3 335 347 336
3 336 324 335
3 336 348 349
3 349 337 336
3 337 349 350
3 350 338 337
3 338 350 351
3 351 339 338
3 339 351 352
3 352 340 339
3 340 352 353
3 353 341 340
3 341 353 354
3 354 342 341
3 342 354 355
3 355 343 342
3 343 355 356
3 356 344 343
3 344 356 357
3 357 345 344
3 345 357 358
3 358 346 345
3 346 358 359
3 359 347 346
3 347 359 348
3 348 336 347
3 348 360 361
3 361 349 348
3 349 361 362
3 362 350 349
3 350 362 363
3 363 351 350
3 351 363 364
3 364 352 351
3 352 364 365
3 365 353 352
3 353 365 366
3 366 354 353
3 354 366 367
3 367 355 354
3 355 367 368
3 368 356 355
3 356 368 369
3 369 357 356
3 357 369 370
3 370 358 357
3 358 370 371
3 371 359 358
3 359 371 360
3 360 348 359
3 360 372 373
3 373 361 360
3 361 373 374
3 374 362 361
3 362 374 375
3 375 363 362
3 363 375 376
3 376 364 363
3 364 376 377
3 377 365 364
3 365 377 378
3 378 366 365
3 366 378 379
3 379 367 366
3 367 379 380
3 380 368 367
3 368 380 381
3 381 369 368
3 369 381 382
3 382 370 369
3 370 382 383
3 383 371 370
3 371 383 372
3 372 360 371
3 372 384 385
3 385 373 372
3 373 385 386
3 386 374 373
3 374 386 387
3 387 375 374
3 375 387 388
3 388 376 375
3 376 388 389
3 389 377 376
3 377 389 390
3 390 378 377
3 378 390 391
3 391 379 378
3 379 391 392
3 392 380 379
3 380 392 393
3 393 381 380
3 381 393 394
3 394 382 381
3 382 394 395
3 395 383 382
3 383 395 384
3 384 372 383
3 384 396 397
3 397 385 384
3 385 397 398
3 398 386 385
3 386 398 399
3 399 387 386
3 387 399 400
3 400 388 387
3 388 400 401
3 401 389 388
3 389 401 402
3 402 390 389
3 390 402 403
3 403 391 390
3 391 403 404
3 404 392 391
3 392 404 405
3 405 393 392
3 393 405 406
3 406 394 393
3 394 406 407
3 407 395 394
3 395 407 396
3 396 384 395
3 396 408 409
3 409 397 396
3 397 409 410
3 410 398 397
3 398 410 411
3 411 399 398
3 399 411 412
3 412 400 399
3 400 412 413
3 413 401 400
3 401 413 414
3 414 402 401
3 402 414 415
3 415 403 402
3 403 415 416
3 416 404 403
3 404 416 417
3 417 405 404
3 405 417 418
3 418 406 405
3 406 418 419
3 419 407 406
3 407 419 408
3 408 396 407
3 408 420 421
3 421 409 408
3 409 421 422
3 422 410 409
3 410 422 423
3 423 411 410
3 411 423 424
3 424 412 411
3 412 424 425
3 425 413 412
3 413 425 426
3 426 414 413
3 414 426 427
3 427 415 414
3 415 427 428
3 428 416 415
3 416 428 429
3 429 417 416
3 417 429 430
3 430 418 417
3 418 430 431
3 431 419 418
3 419 431 420
3 420 408 419
3 420 432 433
3 433 421 420
3 421 433 434
3 434 422 421
3 422 434 435
3 435 423 422
3 423 435 436
3 436 424 423
3 424 436 437
3 437 425 424
3 425 437 438
3 438 426 425
3 426 438 439
3 439 427 426
3 427 439 440
3 440 428 427
3 428 440 441
3 441 429 428
3 429 441 442
3 442 430 429
3 430 442 443
3 443 431 430
3 431 443 432
3 432 420 431
3 432 444 445
3 445 433 432
3 433 445 446
3 446 434 433
3 434 446 447
3 447 435 434
3 435 447 448
3 448 436 435
3 436 448 449
3 449 437 436
3 437 449 450
3 450 438 437
3 438 450 451
3 451 439 438
3 439 451 452
3 452 440 439
3 440 452 453
3 453 441 440
3 441 453 454
3 454 442 441
3 442 454 455
3 455 443 442
3 443 455 444
3 444 432 443
3 444 456 457
3 457 445 444
3 445 457 458
3 458 446 445
3 446 458 459
3 459 447 446
3 447 459 460
3 460 448 447
3 448 460 461
3 461 449 448
3 449 461 462
3 462 450 449
3 450 462 463
3 463 451 450
3 451 463 464
3 464 452 451
3 452 464 465
3 465 453 452
3 453 465 466
3 466 454 453
3 454 466 467
3 467 455 454
3 455 467 456
3 456 444 455
3 456 468 469
3 469 457 456
3 457 469 470
3 470 458 457
3 458 470 471
3 471 459 458
3 459 471 472
3 472 460 459
3 460 472 473
3 473 461 460
3 461 473 474
3 474 462 461
3 462 474 475
3 475 463 462
3 463 475 476
3 476 464 463
3 464 476 477
3 477 465 464
3 465 477 478
3 478 466 465
3 466 478 479
3 479 467 466
3 467 479 468
3 468 456 467
3 468 480 481
3 481 469 468
3 469 481 482
3 482 470 469
3 470 482 483
3 483 471 470
3 471 483 484
3 484 472 471
3 472 484 485
3 485 473 472
3 473 485 486
3 486 474 473
3 474 486 487
3 487 475 474
3 475 487 488
3 488 476 475
3 476 488 489
3 489 477 476
3 477 489 490
3 490 478 477
3 478 490 491
3 491 479 478
3 479 491 480
3 480 468 479
3 480 492 493
3 493 481 480
3 481 493 494
3 494 482 481
3 482 494 495
3 495 483 482
3 483 495 496
3 496 484 483
3 484 496 497
3 497 485 484
3 485 497 498
3 498 486 485
3 486 498 499
3 499 487 486
3 487 499 500
3 500 488 487
3 488 500 501
3 501 489 488
3 489 501 502
3 502 490 489
3 490 502 503
3 503 491 490
3 491 503 492
3 492 480 491
3 492 504 505
3 505 493 492
3 493 505 506
3 506 494 493
3 494 506 507
3 507 495 494
3 495 507 508
3 508 496 495
3 496 508 509
3 509 497 496
3 497 509 510
3 510 498 497
3 498 510 511
3 511 499 498
3 499 511 512
3 512 500 499
3 500 512 513
3 513 501 500
3 501 513 514
3 514 502 501
3 502 514 515
3 515 503 502
3 503 515 504
3 504 492 503
3 504 516 517
3 517 505 504
3 505 517 518
3 518 506 505
3 506 518 519
3 519 507 506
3 507 519 520
3 520 508 507
3 508 520 521
3 521 509 508
3 509 521 522
3 522 510 509
3 510 522 523
3 523 511 510
3 511 523 524
3 524 512 511
3 512 524 525
3 525 513 512
3 513 525 526
3 526 514 513
3 514 526 527
3 527 515 514
3 515 527 516
3 516 504 515
3 516 528 529
3 529 517 516
3 517 529 530
3 530 518 517
3 518 530 531
3 531 519 518
3 519 531 532
3 532 520 519
3 520 532 533
3 533 521 520
3 521 533 534
3 534 522 521
3 522 534 535
3 535 523 522
3 523 535 536
3 536 524 523
3 524 536 537
3 537 525 524
3 525 537 538
3 538 526 525
3 526 538 539
3 539 527 526
3 527 539 528
3 528 516 527
3 528 540 541
3 541 529 528
3 529 541 542
3 542 530 529
3 530 542 543
3 543 531 530
3 531 543 544
3 544 532 531
3 532 544 545
3 545 533 532
3 533 545 546
3 546 534 533
3 534 546 547
3 547 535 534
3 535 547 548
3 548 536 535
3 536 548 549
3 549 537 536
3 537 549 550
3 550 538 537
3 538 550 551
3 551 539 538
3 539 551 540
3 540 528 539
3 540 552 553
3 553 541 540
3 541 553 554
3 554 542 541
3 542 554 555
3 555 543 542
3 543 555 556
3 556 544 543
3 544 556 557
3 557 545 544
3 545 557 558
3 558 546 545
3 546 558 559
3 559 547 546
3 547 559 560
3 560 548 547
3 548 560 561
3 561 549 548
3 549 561 562
3 562 550 549
3 550 562 563
3 563 551 550
3 551 563 552
3 552 540 551
3 552 564 565
3 565 553 552
3 553 565 566
3 566 554 553
3 554 566 567
3 567 555 554
3 555 567 568
3 568 556 555
3 556 568 569
3 569 557 556
3 557 569 570
3 570 558 557
3 558 570 571
3 571 559 558
3 559 571 572
3 572 560 559
3 560 572 573
3 573 561 560
3 561 573 574
3 574 562 561
3 562 574 575
3 575 563 562
3 563 575 564
3 564 552 563
3 564 0 3
3 3 565 564
3 565 3 5
3 5 566 565
3 566 5 7
3 7 567 566
3 567 7 9
3 9 568 567
3 568 9 11
3 11 569 568
3 569 11 13
3 13 570 569
3 570 13 15
3 15 571 570
3 571 15 17
3 17 572 571
3 572 17 19
3 19 573 572
3 573 19 21
3 21 574 573
3 574 21 23
3 23 575 574
3 0 564 575
3 575 23 0
